ply
format ascii 1.0
comment VCGLIB generated
element vertex 99
property float x
property float y
property float z
property uchar red
property uchar green
property uchar blue
property uchar alpha
element face 160
property list uchar int vertex_indices
end_header
7.386075 0 0 255 0 0 255 
7.386075 1.436727 -8.797414e-17 255 0 0 255 
6.401265 1.545269 0.1031656 255 255 255 255 
5.416455 0 0 255 255 255 255 
4.431645 1.715835 0.265283 255 255 255 255 
3.446835 0 0 255 255 255 255 
2.462025 1.824377 0.3684486 255 255 255 255 
1.477215 0 0 255 255 255 255 
0.492405 1.870895 0.4126625 255 255 255 255 
-0.492405 0 0 255 255 255 255 
-1.477215 1.855389 0.3979245 255 255 255 255 
-2.462025 0 0 255 255 255 255 
-3.446835 1.777859 0.3242348 255 255 255 255 
-4.431645 0 0 255 255 255 255 
-5.416455 1.638305 0.1915933 255 255 255 255 
-6.401265 0 0 255 255 255 255 
-7.386075 1.436727 -8.797414e-17 255 0 0 255 
-7.386075 0 0 255 0 0 255 
7.386075 2.873453 -1.759483e-16 255 0 0 255 
5.416455 3.276609 0.3831866 255 255 255 255 
3.446835 3.555717 0.6484696 255 255 255 255 
1.477215 3.710777 0.7958491 255 255 255 255 
-0.492405 3.741789 0.825325 255 255 255 255 
-2.462025 3.648753 0.7368973 255 255 255 255 
-4.431645 3.431669 0.530566 255 255 255 255 
-6.401265 3.090537 0.2063312 255 255 255 255 
-7.386075 2.873453 -1.759483e-16 255 0 0 255 
7.386075 4.31018 -2.639224e-16 255 0 0 255 
6.401265 4.635806 0.3094969 255 255 255 255 
4.431645 5.147504 0.7958491 255 255 255 255 
2.462025 5.47313 1.105346 255 255 255 255 
0.492405 5.612684 1.237988 255 255 255 255 
-1.477215 5.566166 1.193774 255 255 255 255 
-3.446835 5.333576 0.9727044 255 255 255 255 
-5.416455 4.914914 0.5747799 255 255 255 255 
-7.386075 4.31018 -2.639224e-16 255 0 0 255 
7.386075 5.746907 -3.518966e-16 255 0 0 255 
5.416455 6.553218 0.7663732 255 255 255 255 
3.446835 7.111434 1.296939 255 255 255 255 
1.477215 7.421555 1.591698 255 255 255 255 
-0.492405 7.483578 1.65065 255 255 255 255 
-2.462025 7.297506 1.473795 255 255 255 255 
-4.431645 6.863338 1.061132 255 255 255 255 
-6.401265 6.181075 0.4126625 255 255 255 255 
-7.386075 5.746907 -3.518966e-16 255 0 0 255 
7.386075 7.183633 -4.398707e-16 255 0 0 255 
6.401265 7.726343 0.5158281 255 255 255 255 
4.431645 8.579173 1.326415 255 255 255 255 
2.462025 9.121883 1.842243 255 255 255 255 
0.492405 9.354473 2.063313 255 255 255 255 
-1.477215 9.276943 1.989623 255 255 255 255 
-3.446835 8.889293 1.621174 255 255 255 255 
-5.416455 8.191524 0.9579665 255 255 255 255 
-7.386075 7.183633 -4.398707e-16 255 0 0 255 
7.386075 8.62036 -5.278448e-16 255 0 0 255 
5.416455 9.829828 1.14956 255 255 255 255 
3.446835 10.66715 1.945409 255 255 255 255 
1.477215 11.13233 2.387547 255 255 255 255 
-0.492405 11.22537 2.475975 255 255 255 255 
-2.462025 10.94626 2.210692 255 255 255 255 
-4.431645 10.29501 1.591698 255 255 255 255 
-6.401265 9.271612 0.6189938 255 255 255 255 
-7.386075 8.62036 -5.278448e-16 255 0 0 255 
7.386075 10.05709 -6.158189e-16 255 0 0 255 
6.401265 10.81688 0.7221593 255 255 255 255 
4.431645 12.01084 1.856981 255 255 255 255 
2.462025 12.77064 2.579141 255 255 255 255 
0.492405 13.09626 2.888637 255 255 255 255 
-1.477215 12.98772 2.785472 255 255 255 255 
-3.446835 12.44501 2.269644 255 255 255 255 
-5.416455 11.46813 1.341153 255 255 255 255 
-7.386075 10.05709 -6.158189e-16 255 0 0 255 
7.386075 11.49381 -7.037931e-16 255 0 0 255 
5.416455 13.10644 1.532746 255 255 255 255 
3.446835 14.22287 2.593879 255 255 255 255 
1.477215 14.84311 3.183396 255 255 255 255 
-0.492405 14.96716 3.3013 255 255 255 255 
-2.462025 14.59501 2.947589 255 255 255 255 
-4.431645 13.72668 2.122264 255 255 255 255 
-6.401265 12.36215 0.825325 255 255 255 255 
-7.386075 11.49381 -7.037931e-16 255 0 0 255 
7.386075 12.93054 -7.917672e-16 255 0 0 255 
6.401265 13.90742 0.9284906 255 255 255 255 
4.431645 15.44251 2.387547 255 255 255 255 
2.462025 16.41939 3.316038 255 255 255 255 
0.492405 16.83805 3.713962 255 255 255 255 
-1.477215 16.6985 3.581321 255 255 255 255 
-3.446835 16.00073 2.918113 255 255 255 255 
-5.416455 14.74474 1.72434 255 255 255 255 
-7.386075 12.93054 -7.917672e-16 255 0 0 255 
7.386075 14.36727 -8.797414e-16 255 0 0 255 
5.416455 16.38305 1.915933 255 255 255 255 
3.446835 17.77859 3.242348 255 255 255 255 
1.477215 18.55389 3.979245 255 255 255 255 
-0.492405 18.70895 4.126625 255 255 255 255 
-2.462025 18.24377 3.684486 255 255 255 255 
-4.431645 17.15835 2.65283 255 255 255 255 
-6.401265 15.45269 1.031656 255 255 255 255 
-7.386075 14.36727 -8.797414e-16 255 0 0 255 
3 0 1 2 
3 2 3 0 
3 3 2 4 
3 4 5 3 
3 5 4 6 
3 6 7 5 
3 7 6 8 
3 8 9 7 
3 9 8 10 
3 10 11 9 
3 11 10 12 
3 12 13 11 
3 13 12 14 
3 14 15 13 
3 15 14 16 
3 16 17 15 
3 18 2 1 
3 2 18 19 
3 19 4 2 
3 4 19 20 
3 20 6 4 
3 6 20 21 
3 21 8 6 
3 8 21 22 
3 22 10 8 
3 10 22 23 
3 23 12 10 
3 12 23 24 
3 24 14 12 
3 14 24 25 
3 25 16 14 
3 16 25 26 
3 18 27 28 
3 28 19 18 
3 19 28 29 
3 29 20 19 
3 20 29 30 
3 30 21 20 
3 21 30 31 
3 31 22 21 
3 22 31 32 
3 32 23 22 
3 23 32 33 
3 33 24 23 
3 24 33 34 
3 34 25 24 
3 25 34 35 
3 35 26 25 
3 36 28 27 
3 28 36 37 
3 37 29 28 
3 29 37 38 
3 38 30 29 
3 30 38 39 
3 39 31 30 
3 31 39 40 
3 40 32 31 
3 32 40 41 
3 41 33 32 
3 33 41 42 
3 42 34 33 
3 34 42 43 
3 43 35 34 
3 35 43 44 
3 36 45 46 
3 46 37 36 
3 37 46 47 
3 47 38 37 
3 38 47 48 
3 48 39 38 
3 39 48 49 
3 49 40 39 
3 40 49 50 
3 50 41 40 
3 41 50 51 
3 51 42 41 
3 42 51 52 
3 52 43 42 
3 43 52 53 
3 53 44 43 
3 54 46 45 
3 46 54 55 
3 55 47 46 
3 47 55 56 
3 56 48 47 
3 48 56 57 
3 57 49 48 
3 49 57 58 
3 58 50 49 
3 50 58 59 
3 59 51 50 
3 51 59 60 
3 60 52 51 
3 52 60 61 
3 61 53 52 
3 53 61 62 
3 54 63 64 
3 64 55 54 
3 55 64 65 
3 65 56 55 
3 56 65 66 
3 66 57 56 
3 57 66 67 
3 67 58 57 
3 58 67 68 
3 68 59 58 
3 59 68 69 
3 69 60 59 
3 60 69 70 
3 70 61 60 
3 61 70 71 
3 71 62 61 
3 72 64 63 
3 64 72 73 
3 73 65 64 
3 65 73 74 
3 74 66 65 
3 66 74 75 
3 75 67 66 
3 67 75 76 
3 76 68 67 
3 68 76 77 
3 77 69 68 
3 69 77 78 
3 78 70 69 
3 70 78 79 
3 79 71 70 
3 71 79 80 
3 72 81 82 
3 82 73 72 
3 73 82 83 
3 83 74 73 
3 74 83 84 
3 84 75 74 
3 75 84 85 
3 85 76 75 
3 76 85 86 
3 86 77 76 
3 77 86 87 
3 87 78 77 
3 78 87 88 
3 88 79 78 
3 79 88 89 
3 89 80 79 
3 90 82 81 
3 82 90 91 
3 91 83 82 
3 83 91 92 
3 92 84 83 
3 84 92 93 
3 93 85 84 
3 85 93 94 
3 94 86 85 
3 86 94 95 
3 95 87 86 
3 87 95 96 
3 96 88 87 
3 88 96 97 
3 97 89 88 
3 89 97 98 
